<?xml version="1.0" encoding="utf-8"?>
<!-- Generator: Adobe Illustrator 26.0.3, SVG Export Plug-In . SVG Version: 6.00 Build 0)  -->
<svg version="1.1" id="Layer_1" xmlns="http://www.w3.org/2000/svg" xmlns:xlink="http://www.w3.org/1999/xlink" x="0px" y="0px"
	 viewBox="0 0 461.6 155" style="enable-background:new 0 0 461.6 155;" xml:space="preserve">
<style type="text/css">
	.st0{fill:#010101;}
	.st1{fill:#0297C1;}
	.st2{fill-rule:evenodd;clip-rule:evenodd;fill:#FFFFFF;}
	.st3{fill:#FFFFFF;}
	.st4{fill-rule:evenodd;clip-rule:evenodd;fill:#0297C1;}
</style>
<g>
	<g>
		<g>
			<g>
				<path class="st0" d="M139.3,69.3L131,85.7h-2l27.8-55h2.3l12.8,55h-2.1l-3.7-16.4C166.1,69.3,139.3,69.3,139.3,69.3z
					 M157.8,32.1L140,67.6h25.7L157.8,32.1z"/>
			</g>
		</g>
		<g>
			<g>
				<path class="st0" d="M184.7,85.8l7.6-55h2l-7.6,55H184.7z"/>
			</g>
		</g>
		<g>
			<g>
				<path class="st0" d="M213.2,59.5l-3.6,26.1h-2l7.6-55h12.7c13.6,0,18.4,5.3,17.2,14.3c-1.3,9-7.6,13-15.5,14.3l12.7,26.4h-2.4
					l-12.4-26.2H213.2z M225.5,57.9c9.5,0,16.4-3.9,17.7-12.9c1.1-7.9-2.8-12.6-15.7-12.6h-10.5l-3.5,25.5H225.5z"/>
			</g>
		</g>
		<g>
			<g>
				<path class="st0" d="M290.9,35.4l-1.5,1.4c-3.5-3.5-7.3-5.3-13.4-5.3c-8.5,0-14.4,4.6-15.3,11c-0.9,6.7,2.5,9.5,12.9,12.6
					c10.9,3.3,15.4,6.8,14.2,15.8c-1.3,9.2-9.4,15.5-19.9,15.5c-7.7,0-12.5-2.6-16.5-6.6l1.5-1.2c3.7,3.6,7.9,6,15.2,6
					c9.6,0,16.7-5.4,17.8-13.7c1.1-8.1-2.8-11-13.3-14.3c-11.3-3.5-14.9-6.8-13.9-14.2c1-7.2,8-12.7,17.6-12.7
					C283.4,29.9,287.2,32.1,290.9,35.4z"/>
			</g>
			<g>
				<path class="st0" d="M267.9,87.1c-6.9,0-12-2-16.9-6.8l-0.5-0.5l2.3-2l0.4,0.4c3.1,3,7,5.9,14.8,5.9c9.4,0,16.2-5.2,17.3-13.2
					c1-7.2-1.9-10.2-12.8-13.7c-11.7-3.6-15.3-7.3-14.3-14.8c1.1-7.8,8.5-13.2,18.1-13.2c7.3,0,11.3,2.2,15,5.8l0.5,0.4l-2.3,2.1
					l-0.4-0.4c-3.6-3.6-7.3-5.1-13-5.1c-8,0-13.9,4.2-14.8,10.4c-0.9,6,2,8.8,12.5,12c10.5,3.2,16,6.7,14.6,16.5
					C287,80.5,278.6,87.1,267.9,87.1z M252.2,79.9c4.5,4.2,9.3,6,15.6,6c10.1,0,18.1-6.1,19.3-15c1.1-8-2.2-11.7-13.8-15.2
					c-9.9-3-14.3-5.8-13.3-13.3c1-6.8,7.3-11.5,15.9-11.5c5.8,0,9.7,1.5,13.4,5.1l0.6-0.6c-3.3-3-7.1-5-13.8-5c-9,0-16,5-17,12.2
					c-1,6.9,2.2,10.1,13.6,13.6c10.2,3.1,14.8,6.2,13.7,14.9c-1.2,8.6-8.4,14.1-18.4,14.1c-7.9,0-12-2.7-15.2-5.9L252.2,79.9z"/>
			</g>
		</g>
		<g>
			<g>
				<path class="st0" d="M311.6,32.4l-3.2,23.4H330l-0.2,1.7h-21.7L304.5,84h26l-0.2,1.7h-28l7.6-55h27.4l-0.5,1.7L311.6,32.4
					L311.6,32.4z"/>
			</g>
			<g>
				<path class="st0" d="M330.7,86.3h-29.2l7.8-56.2H338l-0.8,2.8h-25.2L309,55.2h21.7l-0.4,2.8h-21.7l-3.5,25.4h26L330.7,86.3z
					 M302.9,85.2h26.8l0.1-0.5h-26l3.8-27.7h21.7l0.1-0.5h-21.7l3.4-24.6h25.3l0.2-0.5h-26.2L302.9,85.2z"/>
			</g>
		</g>
		<g>
			<g>
				<path class="st0" d="M377.4,85.8l-24.1-53c-0.2,2.8-0.7,6.4-1.8,14.4l-5.4,38.5h-1.8l7.6-55h2.4l24,53c0.4-3.2,0.9-8.2,1.8-14.4
					l5.3-38.4h1.9l-7.6,55L377.4,85.8L377.4,85.8z"/>
			</g>
			<g>
				<path class="st0" d="M380.4,86.3H377L353.7,35c-0.3,2.8-0.8,6.4-1.6,12.3l-5.4,39h-3l7.8-56.2h3.3l23.3,51.3
					c0.4-3.1,0.8-7.3,1.5-12.4l5.4-38.9h3L380.4,86.3z M379,85.2h0.4l7.4-53.8h-0.7l-5.3,37.9c-0.8,5.4-1.2,9.7-1.6,12.9L379,85.2z
					 M377.8,85.2h0.8l-24.5-53.8h-0.8L377.8,85.2z M345.1,85.2h0.7l5.3-38c1.2-8.5,1.6-11.8,1.8-14.4l0.1-1.4h-0.4L345.1,85.2z"/>
			</g>
		</g>
		<g>
			<g>
				<path class="st0" d="M418.9,30.8c12.4,0,24.8,4.4,21.7,26.9c-3.2,23-17.4,28.1-28.9,28.1h-10.7l7.6-55H418.9z M403.1,84h8.9
					c11.1,0,23.6-5,26.5-26.4c3-21.7-8.7-25.2-20-25.2h-8.3L403.1,84z"/>
			</g>
			<g>
				<path class="st0" d="M411.7,86.3h-11.4l7.8-56.2H419c8.5,0,14.4,2,18.2,6.3c4,4.6,5.4,11.7,4,21.2
					C437.9,81.4,423.3,86.3,411.7,86.3z M401.5,85.2h10c11.2,0,25.2-4.8,28.3-27.6c1.3-9.2,0-16-3.7-20.3c-3.5-4-9.2-5.9-17.4-5.9
					h-9.9L401.5,85.2z M412,84.6h-9.6l7.3-52.8h8.8c5.1,0,12.4,0.6,16.9,5.8c3.7,4.2,4.9,11,3.7,20.1C437.4,70,431.3,84.6,412,84.6z
					 M403.8,83.4h8.2c14.8,0,23.6-8.7,25.9-25.9c1.2-8.8,0.1-15.2-3.4-19.2c-3.2-3.7-8.3-5.4-16-5.4h-7.8L403.8,83.4z"/>
			</g>
		</g>
	</g>
	<g>
		<circle class="st1" cx="52.8" cy="52.8" r="52.8"/>
	</g>
	<g>
		<path class="st2" d="M8.3,145.8c2.5-16.4,12.1-72.2,40.6-93l1.8,2.5c-32.4,23.7-37.9,95.3-38,95.5C11.3,150.7,7.7,149.6,8.3,145.8
			L8.3,145.8z"/>
	</g>
	<g>
		<g>
			<path class="st3" d="M56.1,53.4c0,0,22.2-2.1,35.8,1.7l-0.2,0.6C78.4,51.9,56.3,54,56.3,54L56.1,53.4L56.1,53.4z"/>
		</g>
		<g>
			<path class="st2" d="M50.7,81.9c0,0-1.6-13.3-1.3-21.8H50c-0.3,8.4,1.3,21.6,1.3,21.7L50.7,81.9L50.7,81.9z"/>
		</g>
		<g>
			<path class="st3" d="M54.6,52.7c-0.1,0.1-0.3,0-0.4-0.1c-0.1-0.1,0-0.3,0.1-0.4c0,0,14.3-9.1,28-12.8c0.2,0,0.3,0.1,0.4,0.2
				c0,0.2-0.1,0.3-0.2,0.4C68.8,43.6,54.7,52.6,54.6,52.7L54.6,52.7z"/>
		</g>
		<g>
			<path class="st2" d="M20.5,69.1c0.1,0,18.8-12.7,28.1-15l0.2,0.6c-9.3,2.3-27.9,14.9-28,14.9L20.5,69.1L20.5,69.1z"/>
		</g>
		<g>
			<path class="st2" d="M20.8,48.4c0.1,0,21.3,2.8,30.6,5.1l-0.2,0.6C41.9,51.8,20.7,49,20.7,49L20.8,48.4L20.8,48.4z"/>
		</g>
		<g>
			<path class="st2" d="M73.1,71.8c0,0-10-9.5-19-13.3l0.2-0.6c9.1,3.9,19.2,13.4,19.2,13.5L73.1,71.8L73.1,71.8z"/>
		</g>
		<g>
			<path class="st2" d="M31.3,27.8c0,0,8.3,16.5,18.6,22.7L49.6,51c-10.5-6.3-18.8-22.9-18.9-22.9L31.3,27.8L31.3,27.8z"/>
		</g>
		<g>
			<path class="st2" d="M57.6,25.2c0,0-4.2,2.9-7.2,28l-0.6-0.1c3.1-25.3,7.5-28.4,7.5-28.4L57.6,25.2L57.6,25.2z"/>
		</g>
		<g>
			<path class="st2" d="M73.1,28.3c0,0.1-15.8,19.5-21.6,26.8L51,54.7c5.7-7.3,21.5-26.8,21.6-26.8L73.1,28.3L73.1,28.3z"/>
		</g>
		<g>
			<path class="st2" d="M83.5,34.5c2.8,0.4,4.7,3,4.2,5.8c-0.4,2.8-3,4.7-5.8,4.2c-2.8-0.4-4.7-3-4.2-5.8
				C78.1,36,80.7,34.1,83.5,34.5L83.5,34.5z"/>
		</g>
		<g>
			<path class="st2" d="M75.7,20.4c2.5,0.4,4.3,2.7,3.9,5.3c-0.4,2.5-2.7,4.3-5.3,3.9c-2.5-0.4-4.3-2.7-3.9-5.3
				C70.8,21.7,73.2,20,75.7,20.4L75.7,20.4z"/>
		</g>
		<g>
			<path class="st2" d="M58.1,20.2c2.6,0.4,4.4,2.8,4,5.4s-2.8,4.4-5.4,4c-2.6-0.4-4.4-2.8-4-5.4S55.5,19.8,58.1,20.2L58.1,20.2z"/>
		</g>
		<g>
			<path class="st2" d="M31.8,22.9c2.8,0.4,4.7,3,4.3,5.8s-3,4.7-5.8,4.3s-4.7-3-4.3-5.8C26.4,24.4,29,22.5,31.8,22.9L31.8,22.9z"/>
		</g>
		<g>
			<path class="st2" d="M21.5,43.9c2.7,0.4,4.5,2.9,4.1,5.6c-0.4,2.7-2.9,4.5-5.6,4.1s-4.5-2.9-4.1-5.6
				C16.3,45.3,18.8,43.5,21.5,43.9L21.5,43.9z"/>
		</g>
		<g>
			<path class="st2" d="M21.4,64.6c2.6,0.4,4.4,2.8,4,5.5c-0.4,2.6-2.8,4.4-5.5,4c-2.6-0.4-4.4-2.8-4-5.5
				C16.3,66,18.7,64.2,21.4,64.6L21.4,64.6z"/>
		</g>
		<g>
			<path class="st2" d="M51.8,76.9c2.7,0.4,4.6,3,4.2,5.7c-0.4,2.7-3,4.6-5.7,4.2s-4.6-3-4.2-5.7C46.5,78.4,49.1,76.5,51.8,76.9
				L51.8,76.9z"/>
		</g>
		<g>
			<path class="st2" d="M74.4,64.8c3.7,0.6,6.3,4.1,5.7,7.8c-0.6,3.7-4.1,6.3-7.8,5.7c-3.7-0.6-6.3-4.1-5.7-7.8
				C67.2,66.8,70.7,64.2,74.4,64.8L74.4,64.8z"/>
		</g>
		<g>
			<path class="st2" d="M92.7,50.3c2.8,0.4,4.7,3,4.3,5.8c-0.4,2.8-3,4.7-5.8,4.3s-4.7-3-4.3-5.8C87.3,51.8,89.9,49.9,92.7,50.3
				L92.7,50.3z"/>
		</g>
		<g>
			<path class="st2" d="M39,82.5c1.4,0.2,2.3,1.5,2.1,2.8c-0.2,1.4-1.5,2.3-2.8,2.1c-1.4-0.2-2.3-1.5-2.1-2.8
				C36.4,83.2,37.6,82.3,39,82.5L39,82.5z"/>
		</g>
		<g>
			<path class="st2" d="M73.1,85c1.9,0.3,3.3,2.1,3,4.1c-0.3,1.9-2.1,3.3-4.1,3c-1.9-0.3-3.3-2.1-3-4.1C69.4,86,71.2,84.7,73.1,85
				L73.1,85z"/>
		</g>
		<g>
			<path class="st2" d="M53,95.9c0.9,0.1,1.6,1,1.4,1.9c-0.1,0.9-1,1.6-1.9,1.4c-0.9-0.1-1.6-1-1.4-1.9C51.2,96.3,52.1,95.7,53,95.9
				L53,95.9z"/>
		</g>
		<g>
			<path class="st2" d="M11.2,55.3c1.4,0.2,2.4,1.6,2.2,3c-0.2,1.4-1.6,2.4-3,2.2s-2.4-1.6-2.2-3C8.5,56,9.8,55,11.2,55.3L11.2,55.3
				z"/>
		</g>
		<g>
			<path class="st2" d="M45.4,18.9c1.1,0.2,1.9,1.2,1.7,2.3c-0.2,1.1-1.2,1.9-2.3,1.7c-1.1-0.2-1.9-1.2-1.7-2.3
				C43.3,19.5,44.3,18.8,45.4,18.9L45.4,18.9z"/>
		</g>
		<g>
			<path class="st2" d="M19.3,21c1.2,0.2,2,1.3,1.8,2.5s-1.3,2-2.5,1.8s-2-1.3-1.8-2.5C17,21.6,18.1,20.8,19.3,21L19.3,21z"/>
		</g>
		<g>
			<path class="st2" d="M40.6,10.3c0.9,0.1,1.6,1,1.4,1.9c-0.1,0.9-1,1.6-1.9,1.4c-0.9-0.1-1.6-1-1.4-1.9
				C38.8,10.8,39.7,10.1,40.6,10.3L40.6,10.3z"/>
		</g>
		<g>
			<path class="st2" d="M61.9,7.3c1.6,0.2,2.7,1.7,2.5,3.4c-0.2,1.6-1.7,2.7-3.3,2.5s-2.7-1.7-2.5-3.3C58.7,8.2,60.2,7.1,61.9,7.3
				L61.9,7.3z"/>
		</g>
		<g>
			<path class="st2" d="M85.9,75.2c1.1,0.2,1.9,1.2,1.7,2.3c-0.2,1.1-1.2,1.9-2.3,1.7c-1.1-0.2-1.9-1.2-1.7-2.3
				C83.8,75.8,84.8,75,85.9,75.2L85.9,75.2z"/>
		</g>
		<g>
			<path class="st2" d="M57.1,65.6c1.1,0.2,1.9,1.2,1.7,2.3c-0.2,1.1-1.2,1.9-2.3,1.7c-1.1-0.2-1.9-1.2-1.7-2.3
				C55,66.2,56,65.4,57.1,65.6L57.1,65.6z"/>
		</g>
		<g>
			<path class="st2" d="M8.3,145.8c2.5-16.4,12.1-72.2,40.6-93l1.8,2.5c-32.4,23.7-37.9,95.3-38,95.5
				C11.3,150.7,7.7,149.6,8.3,145.8L8.3,145.8z"/>
		</g>
		<g>
			<path class="st2" d="M50.8,47.6c3.8,0.6,6.5,4.2,5.9,8s-4.2,6.5-8,5.9s-6.5-4.2-5.9-8C43.4,49.7,47,47,50.8,47.6L50.8,47.6z"/>
		</g>
		<g>
			<path class="st2" d="M95.6,43.7c1,0,1.8,0.8,1.8,1.8s-0.8,1.8-1.8,1.8s-1.8-0.8-1.8-1.8C93.9,44.5,94.6,43.7,95.6,43.7L95.6,43.7
				z"/>
		</g>
		<g>
			<path class="st3" d="M34.3,24.1c-0.7-0.7-1.7-1.2-2.8-1.4c-2.8-0.4-5.3,1.4-5.8,4.1c-0.1,0.9,0,1.8,0.3,2.6h0.1
				C30.1,29.4,33.4,27.1,34.3,24.1z"/>
		</g>
		<g>
			<path class="st3" d="M24.2,45.3c-0.7-0.7-1.7-1.2-2.8-1.4c-2.7-0.4-5.3,1.4-5.7,4c-0.1,0.9,0,1.8,0.3,2.5h0.1
				C20.1,50.4,23.3,48.2,24.2,45.3z"/>
		</g>
		<g>
			<path class="st3" d="M24.2,66c-0.7-0.7-1.7-1.2-2.8-1.4c-2.7-0.4-5.3,1.4-5.7,4c-0.1,0.9,0,1.8,0.3,2.5h0.1
				C20.1,71.2,23.3,69,24.2,66z"/>
		</g>
		<g>
			<path class="st3" d="M54.7,78.3c-0.7-0.7-1.7-1.2-2.8-1.4c-2.8-0.4-5.4,1.4-5.8,4.1c-0.1,0.9,0,1.8,0.3,2.6h0.1
				C50.5,83.6,53.8,81.4,54.7,78.3z"/>
		</g>
		<g>
			<path class="st3" d="M54.8,49.6c-1-1-2.4-1.7-3.9-2c-3.9-0.6-7.5,2-8,5.7c-0.2,1.3,0,2.5,0.5,3.6c0.1,0,0.1,0,0.2,0
				C48.9,56.9,53.5,53.8,54.8,49.6z"/>
		</g>
		<g>
			<path class="st3" d="M78.4,66.7c-1-1-2.4-1.7-3.9-2c-3.9-0.6-7.5,2-8,5.7c-0.2,1.3,0,2.5,0.5,3.6c0.1,0,0.1,0,0.2,0
				C72.5,74.1,77.1,71,78.4,66.7z"/>
		</g>
		<g>
			<path class="st3" d="M60.8,21.6c-0.7-0.7-1.6-1.2-2.7-1.3c-2.7-0.4-5.1,1.4-5.5,3.9c-0.1,0.9,0,1.7,0.3,2.5H53
				C56.8,26.7,59.9,24.6,60.8,21.6z"/>
		</g>
		<g>
			<path class="st3" d="M78.5,21.7c-0.7-0.7-1.6-1.2-2.6-1.3c-2.6-0.4-5,1.3-5.4,3.8c-0.1,0.9,0,1.7,0.3,2.4h0.1
				C74.6,26.6,77.6,24.5,78.5,21.7z"/>
		</g>
		<g>
			<path class="st3" d="M86.2,35.9c-0.7-0.7-1.7-1.2-2.8-1.4c-2.8-0.4-5.4,1.4-5.8,4.1c-0.1,0.9,0,1.8,0.3,2.6H78
				C82,41.2,85.3,38.9,86.2,35.9z"/>
		</g>
		<g>
			<path class="st3" d="M95.4,51.7c-0.8-0.7-1.7-1.3-2.9-1.4c-2.8-0.4-5.4,1.5-5.9,4.2c-0.1,0.9,0,1.8,0.3,2.6H87
				C91.1,57.1,94.5,54.8,95.4,51.7z"/>
		</g>
		<g>
			<path class="st4" d="M21,94.9c-7.8,20.6-11.3,41.8-12.7,50.9c-0.6,3.8,3,4.9,4.4,5c0-0.1,2.1-27.3,11.3-53.8
				C23,96.3,22,95.6,21,94.9z"/>
		</g>
	</g>
	<g>
		<path class="st1" d="M132.4,125h-6.1l3.1-19.5h5.9c6.6,0,10.3,2.4,10.3,8.2C145.5,121,140.8,125,132.4,125z M135.3,108.8h-2.5
			l-2,12.7h2.3c5.4,0,8.5-2.7,8.5-7.7C141.6,110.4,139.5,108.8,135.3,108.8z"/>
		<path class="st1" d="M161.2,125.3c-4.9,0-8.1-2.8-8.1-8.4c0-7.6,4.9-11.8,11-11.8c4.9,0,8.1,2.8,8.1,8.4
			C172.1,121.1,167.2,125.3,161.2,125.3z M163.6,108.5c-3.8,0-6.6,3.2-6.6,8.4c0,3.3,1.7,5,4.6,5c3.8,0,6.6-3.2,6.6-8.3
			C168.2,110.2,166.5,108.5,163.6,108.5z"/>
		<path class="st1" d="M195.5,109.8c-0.5-0.4-1.8-1.3-4.3-1.3c-4,0-7.6,2.6-7.6,8.2c0,3.7,1.9,5.1,5.1,5.1c2.6,0,4.1-0.8,4.8-1.3
			l0.8,3.1c-0.8,0.6-2.7,1.7-6.5,1.7c-4.9,0-8.3-2.5-8.3-8.5c0-7.9,5.8-11.7,11.5-11.7c3.4,0,5.1,1.2,5.7,1.5L195.5,109.8z"/>
		<path class="st1" d="M219.7,116.2c-0.9,5.9-3.9,9.1-9.6,9.1c-4.7,0-7.1-2-7.1-6.5c0-1,0.1-2,0.3-3.5l1.6-9.9h3.9l-1.6,9.9
			c-0.2,1.2-0.3,2.2-0.3,2.9c0,2.5,1.3,3.5,3.7,3.5c3.1,0,4.7-1.8,5.3-5.7l1.7-10.7h3.8L219.7,116.2z"/>
		<path class="st1" d="M248.3,125h-3.8l1.9-12.2h-0.1l-7,12.2h-3l-3.2-12.2h-0.1l-2,12.2h-3.8l3.1-19.5h4.3l3.8,14.4h0l8.3-14.4h4.4
			L248.3,125z"/>
		<path class="st1" d="M273,108.8h-8.8l-0.7,4.6h7.9l-0.5,3.2h-8l-0.8,5h9.1l-0.6,3.4h-13l3.1-19.5h12.8L273,108.8z"/>
		<path class="st1" d="M295.4,125h-3.5l-6.8-12.7H285l-2,12.7h-3.9l3.1-19.5h3.5l6.9,12.7h0l2-12.7h3.9L295.4,125z"/>
		<path class="st1" d="M322.8,108.7h-6.6l-2.6,16.2h-3.9l2.5-16.2h-6.6l0.5-3.3h17.1L322.8,108.7z"/>
		<path class="st1" d="M343,125h-4.1l-1-5.3h-6.8l-2.6,5.3h-4.1l10.4-19.5h4L343,125z M336.2,109.4L336.2,109.4l-3.7,7.6h5
			L336.2,109.4z"/>
		<path class="st1" d="M366.9,108.7h-6.6l-2.6,16.2h-3.9l2.5-16.2h-6.6l0.5-3.3h17.1L366.9,108.7z"/>
		<path class="st1" d="M376,125h-3.9l3.1-19.5h3.9L376,125z"/>
		<path class="st1" d="M394.2,125.3c-4.9,0-8.1-2.8-8.1-8.4c0-7.6,4.9-11.8,11-11.8c4.9,0,8.1,2.8,8.1,8.4
			C405.2,121.1,400.3,125.3,394.2,125.3z M396.7,108.5c-3.8,0-6.6,3.2-6.6,8.4c0,3.3,1.7,5,4.6,5c3.8,0,6.6-3.2,6.6-8.3
			C401.3,110.2,399.6,108.5,396.7,108.5z"/>
		<path class="st1" d="M428.3,125h-3.5l-6.8-12.7h-0.1l-2,12.7H412l3.1-19.5h3.5l6.9,12.7h0l2-12.7h3.9L428.3,125z"/>
	</g>
</g>
</svg>
