<?xml version="1.0" encoding="utf-8"?>
<!-- Generator: Adobe Illustrator 26.0.3, SVG Export Plug-In . SVG Version: 6.00 Build 0)  -->
<svg version="1.1" id="Layer_1" xmlns="http://www.w3.org/2000/svg" xmlns:xlink="http://www.w3.org/1999/xlink" x="0px" y="0px"
	 viewBox="0 0 461.6 155" style="enable-background:new 0 0 461.6 155;" xml:space="preserve">
<style type="text/css">
	.st0{fill:#010101;}
	.st1{fill:#0297C1;}
	.st2{fill-rule:evenodd;clip-rule:evenodd;fill:#FFFFFF;}
	.st3{fill:#FFFFFF;}
	.st4{fill-rule:evenodd;clip-rule:evenodd;fill:#0297C1;}
</style>
<g>
	<g>
		<g>
			<g>
				<path class="st0" d="M149.3,64.2l-6.7,13.2h-1.6l22.3-44.2h1.9l10.3,44.2h-1.7l-3-13.2C170.9,64.2,149.3,64.2,149.3,64.2z
					 M164.2,34.4L150,62.9h20.7L164.2,34.4z"/>
			</g>
		</g>
		<g>
			<g>
				<path class="st0" d="M185.8,77.5l6.1-44.2h1.6l-6.1,44.2H185.8z"/>
			</g>
		</g>
		<g>
			<g>
				<path class="st0" d="M208.7,56.4l-2.9,21h-1.6l6.1-44.2h10.2c10.9,0,14.8,4.2,13.8,11.5c-1,7.2-6.1,10.4-12.5,11.5L232,77.5h-2
					l-9.9-21.1H208.7z M218.6,55.1c7.6,0,13.2-3.1,14.2-10.3c0.9-6.3-2.3-10.1-12.6-10.1h-8.5l-2.8,20.4H218.6z"/>
			</g>
		</g>
		<g>
			<g>
				<path class="st0" d="M271.1,37l-1.2,1.1c-2.8-2.8-5.9-4.2-10.7-4.2c-6.8,0-11.6,3.7-12.3,8.9c-0.7,5.4,2,7.6,10.3,10.1
					c8.8,2.7,12.4,5.5,11.4,12.7c-1,7.4-7.5,12.5-16,12.5c-6.2,0-10-2.1-13.2-5.3l1.2-0.9c3,2.9,6.3,4.9,12.2,4.9
					c7.7,0,13.4-4.3,14.3-11c0.9-6.5-2.3-8.9-10.7-11.5c-9.1-2.8-12-5.5-11.2-11.4c0.8-5.8,6.4-10.2,14.1-10.2
					C265.1,32.6,268.1,34.4,271.1,37z"/>
			</g>
			<g>
				<path class="st0" d="M252.6,78.5c-5.6,0-9.6-1.6-13.6-5.5l-0.4-0.4l1.9-1.6l0.3,0.3c2.5,2.4,5.6,4.7,11.9,4.7
					c7.5,0,13-4.2,13.9-10.6c0.8-5.8-1.5-8.2-10.3-11c-9.4-2.9-12.3-5.9-11.5-11.9c0.9-6.3,6.8-10.6,14.6-10.6
					c5.9,0,9.1,1.8,12.1,4.6l0.4,0.3l-1.9,1.7l-0.3-0.3c-2.9-2.9-5.9-4.1-10.4-4.1c-6.4,0-11.2,3.4-11.9,8.4c-0.7,4.9,1.6,7,10,9.6
					c8.5,2.6,12.8,5.4,11.7,13.2C268,73.2,261.3,78.5,252.6,78.5z M240,72.8c3.6,3.4,7.4,4.9,12.5,4.9c8.1,0,14.6-4.9,15.5-12.1
					c0.9-6.4-1.8-9.4-11.1-12.2c-7.9-2.4-11.5-4.6-10.7-10.7c0.8-5.5,5.9-9.2,12.8-9.2c4.6,0,7.8,1.2,10.7,4.1l0.5-0.5
					c-2.7-2.4-5.7-4-11-4c-7.2,0-12.8,4-13.6,9.8c-0.8,5.6,1.8,8.1,10.9,10.9c8.2,2.5,11.9,5,11,12c-0.9,6.9-6.7,11.4-14.8,11.4
					c-6.3,0-9.6-2.2-12.2-4.7L240,72.8z"/>
			</g>
		</g>
		<g>
			<g>
				<path class="st0" d="M287.7,34.6l-2.6,18.8h17.4l-0.2,1.3H285L282,76h20.9l-0.2,1.3h-22.5l6.1-44.2h22l-0.4,1.3L287.7,34.6
					L287.7,34.6z"/>
			</g>
			<g>
				<path class="st0" d="M303.1,77.9h-23.4l6.3-45.1h23l-0.6,2.3h-20.2l-2.5,17.9H303l-0.3,2.3h-17.4l-2.8,20.4h20.9L303.1,77.9z
					 M280.8,77h21.5l0.1-0.4h-20.9l3.1-22.2h17.4L302,54h-17.4l2.7-19.7h20.3l0.2-0.4h-21.1L280.8,77z"/>
			</g>
		</g>
		<g>
			<g>
				<path class="st0" d="M340.6,77.5l-19.3-42.5c-0.2,2.3-0.5,5.2-1.4,11.6l-4.3,30.9h-1.4l6.1-44.2h2l19.3,42.5
					c0.3-2.6,0.7-6.6,1.4-11.6l4.2-30.9h1.5l-6.1,44.2L340.6,77.5L340.6,77.5z"/>
			</g>
			<g>
				<path class="st0" d="M343,77.9h-2.7l-18.7-41.2c-0.2,2.3-0.6,5.2-1.3,9.9L316,77.9h-2.4l6.3-45.1h2.7L341.2,74
					c0.3-2.5,0.6-5.9,1.2-9.9l4.3-31.3h2.4L343,77.9z M341.9,77h0.3l6-43.2h-0.5l-4.2,30.5c-0.6,4.3-0.9,7.8-1.3,10.3L341.9,77z
					 M340.9,77h0.6l-19.7-43.2h-0.6L340.9,77z M314.6,77h0.5l4.2-30.5c0.9-6.8,1.3-9.5,1.4-11.6l0.1-1.1h-0.3L314.6,77z"/>
			</g>
		</g>
		<g>
			<g>
				<path class="st0" d="M373.9,33.3c9.9,0,19.9,3.5,17.4,21.6c-2.6,18.5-13.9,22.6-23.2,22.6h-8.6l6.1-44.2H373.9z M361.2,76h7.1
					c8.9,0,19-4,21.3-21.2c2.4-17.5-7-20.2-16.1-20.2h-6.7L361.2,76z"/>
			</g>
			<g>
				<path class="st0" d="M368.1,77.9h-9.2l6.3-45.1h8.8c6.8,0,11.6,1.6,14.6,5.1c3.2,3.7,4.3,9.4,3.2,17
					C389.2,73.9,377.4,77.9,368.1,77.9z M359.9,77h8.1c9,0,20.2-3.8,22.7-22.2c1-7.4,0-12.8-3-16.3c-2.8-3.2-7.4-4.8-13.9-4.8h-8
					L359.9,77z M368.3,76.5h-7.7l5.9-42.4h7c4.1,0,9.9,0.5,13.6,4.6c3,3.4,3.9,8.9,3,16.1C388.8,64.8,383.8,76.5,368.3,76.5z
					 M361.8,75.6h6.6c11.9,0,19-7,20.8-20.8c0.9-7,0.1-12.2-2.7-15.4c-2.6-3-6.7-4.3-12.8-4.3h-6.3L361.8,75.6z"/>
			</g>
		</g>
	</g>
	<g>
		<circle class="st1" cx="52.8" cy="52.8" r="52.8"/>
	</g>
	<g>
		<path class="st2" d="M8.3,145.8c2.5-16.4,12.1-72.2,40.6-93l1.8,2.5c-32.4,23.7-37.9,95.3-38,95.5C11.3,150.7,7.7,149.6,8.3,145.8
			L8.3,145.8z"/>
	</g>
	<g>
		<g>
			<path class="st3" d="M56.1,53.4c0,0,22.2-2.1,35.8,1.7l-0.2,0.6C78.4,51.9,56.3,54,56.3,54L56.1,53.4L56.1,53.4z"/>
		</g>
		<g>
			<path class="st2" d="M50.7,81.9c0,0-1.6-13.3-1.3-21.8H50c-0.3,8.4,1.3,21.6,1.3,21.7L50.7,81.9L50.7,81.9z"/>
		</g>
		<g>
			<path class="st3" d="M54.6,52.7c-0.1,0.1-0.3,0-0.4-0.1c-0.1-0.1,0-0.3,0.1-0.4c0,0,14.3-9.1,28-12.8c0.2,0,0.3,0.1,0.4,0.2
				c0,0.2-0.1,0.3-0.2,0.4C68.8,43.6,54.7,52.6,54.6,52.7L54.6,52.7z"/>
		</g>
		<g>
			<path class="st2" d="M20.5,69.1c0.1,0,18.8-12.7,28.1-15l0.2,0.6c-9.3,2.3-27.9,14.9-28,14.9L20.5,69.1L20.5,69.1z"/>
		</g>
		<g>
			<path class="st2" d="M20.8,48.4c0.1,0,21.3,2.8,30.6,5.1l-0.2,0.6C41.9,51.8,20.7,49,20.7,49L20.8,48.4L20.8,48.4z"/>
		</g>
		<g>
			<path class="st2" d="M73.1,71.8c0,0-10-9.5-19-13.3l0.2-0.6c9.1,3.9,19.2,13.4,19.2,13.5L73.1,71.8L73.1,71.8z"/>
		</g>
		<g>
			<path class="st2" d="M31.3,27.8c0,0,8.3,16.5,18.6,22.7L49.6,51c-10.5-6.3-18.8-22.9-18.9-22.9L31.3,27.8L31.3,27.8z"/>
		</g>
		<g>
			<path class="st2" d="M57.6,25.2c0,0-4.2,2.9-7.2,28l-0.6-0.1c3.1-25.3,7.5-28.4,7.5-28.4L57.6,25.2L57.6,25.2z"/>
		</g>
		<g>
			<path class="st2" d="M73.1,28.3c0,0.1-15.8,19.5-21.6,26.8L51,54.7c5.7-7.3,21.5-26.8,21.6-26.8L73.1,28.3L73.1,28.3z"/>
		</g>
		<g>
			<path class="st2" d="M83.5,34.5c2.8,0.4,4.7,3,4.2,5.8c-0.4,2.8-3,4.7-5.8,4.2c-2.8-0.4-4.7-3-4.2-5.8
				C78.1,36,80.7,34.1,83.5,34.5L83.5,34.5z"/>
		</g>
		<g>
			<path class="st2" d="M75.7,20.4c2.5,0.4,4.3,2.7,3.9,5.3c-0.4,2.5-2.7,4.3-5.3,3.9c-2.5-0.4-4.3-2.7-3.9-5.3
				C70.8,21.7,73.2,20,75.7,20.4L75.7,20.4z"/>
		</g>
		<g>
			<path class="st2" d="M58.1,20.2c2.6,0.4,4.4,2.8,4,5.4s-2.8,4.4-5.4,4c-2.6-0.4-4.4-2.8-4-5.4S55.5,19.8,58.1,20.2L58.1,20.2z"/>
		</g>
		<g>
			<path class="st2" d="M31.8,22.9c2.8,0.4,4.7,3,4.3,5.8s-3,4.7-5.8,4.3s-4.7-3-4.3-5.8C26.4,24.4,29,22.5,31.8,22.9L31.8,22.9z"/>
		</g>
		<g>
			<path class="st2" d="M21.5,43.9c2.7,0.4,4.5,2.9,4.1,5.6c-0.4,2.7-2.9,4.5-5.6,4.1s-4.5-2.9-4.1-5.6
				C16.3,45.3,18.8,43.5,21.5,43.9L21.5,43.9z"/>
		</g>
		<g>
			<path class="st2" d="M21.4,64.6c2.6,0.4,4.4,2.8,4,5.5c-0.4,2.6-2.8,4.4-5.5,4c-2.6-0.4-4.4-2.8-4-5.5
				C16.3,66,18.7,64.2,21.4,64.6L21.4,64.6z"/>
		</g>
		<g>
			<path class="st2" d="M51.8,76.9c2.7,0.4,4.6,3,4.2,5.7c-0.4,2.7-3,4.6-5.7,4.2s-4.6-3-4.2-5.7C46.5,78.4,49.1,76.5,51.8,76.9
				L51.8,76.9z"/>
		</g>
		<g>
			<path class="st2" d="M74.4,64.8c3.7,0.6,6.3,4.1,5.7,7.8c-0.6,3.7-4.1,6.3-7.8,5.7c-3.7-0.6-6.3-4.1-5.7-7.8
				C67.2,66.8,70.7,64.2,74.4,64.8L74.4,64.8z"/>
		</g>
		<g>
			<path class="st2" d="M92.7,50.3c2.8,0.4,4.7,3,4.3,5.8c-0.4,2.8-3,4.7-5.8,4.3s-4.7-3-4.3-5.8C87.3,51.8,89.9,49.9,92.7,50.3
				L92.7,50.3z"/>
		</g>
		<g>
			<path class="st2" d="M39,82.5c1.4,0.2,2.3,1.5,2.1,2.8c-0.2,1.4-1.5,2.3-2.8,2.1c-1.4-0.2-2.3-1.5-2.1-2.8
				C36.4,83.2,37.6,82.3,39,82.5L39,82.5z"/>
		</g>
		<g>
			<path class="st2" d="M73.1,85c1.9,0.3,3.3,2.1,3,4.1c-0.3,1.9-2.1,3.3-4.1,3c-1.9-0.3-3.3-2.1-3-4.1C69.4,86,71.2,84.7,73.1,85
				L73.1,85z"/>
		</g>
		<g>
			<path class="st2" d="M53,95.9c0.9,0.1,1.6,1,1.4,1.9c-0.1,0.9-1,1.6-1.9,1.4c-0.9-0.1-1.6-1-1.4-1.9C51.2,96.3,52.1,95.7,53,95.9
				L53,95.9z"/>
		</g>
		<g>
			<path class="st2" d="M11.2,55.3c1.4,0.2,2.4,1.6,2.2,3c-0.2,1.4-1.6,2.4-3,2.2s-2.4-1.6-2.2-3C8.5,56,9.8,55,11.2,55.3L11.2,55.3
				z"/>
		</g>
		<g>
			<path class="st2" d="M45.4,18.9c1.1,0.2,1.9,1.2,1.7,2.3c-0.2,1.1-1.2,1.9-2.3,1.7c-1.1-0.2-1.9-1.2-1.7-2.3
				C43.3,19.5,44.3,18.8,45.4,18.9L45.4,18.9z"/>
		</g>
		<g>
			<path class="st2" d="M19.3,21c1.2,0.2,2,1.3,1.8,2.5s-1.3,2-2.5,1.8s-2-1.3-1.8-2.5C17,21.6,18.1,20.8,19.3,21L19.3,21z"/>
		</g>
		<g>
			<path class="st2" d="M40.6,10.3c0.9,0.1,1.6,1,1.4,1.9c-0.1,0.9-1,1.6-1.9,1.4c-0.9-0.1-1.6-1-1.4-1.9
				C38.8,10.8,39.7,10.1,40.6,10.3L40.6,10.3z"/>
		</g>
		<g>
			<path class="st2" d="M61.9,7.3c1.6,0.2,2.7,1.7,2.5,3.4c-0.2,1.6-1.7,2.7-3.3,2.5s-2.7-1.7-2.5-3.3C58.7,8.2,60.2,7.1,61.9,7.3
				L61.9,7.3z"/>
		</g>
		<g>
			<path class="st2" d="M85.9,75.2c1.1,0.2,1.9,1.2,1.7,2.3c-0.2,1.1-1.2,1.9-2.3,1.7c-1.1-0.2-1.9-1.2-1.7-2.3
				C83.8,75.8,84.8,75,85.9,75.2L85.9,75.2z"/>
		</g>
		<g>
			<path class="st2" d="M57.1,65.6c1.1,0.2,1.9,1.2,1.7,2.3c-0.2,1.1-1.2,1.9-2.3,1.7c-1.1-0.2-1.9-1.2-1.7-2.3
				C55,66.2,56,65.4,57.1,65.6L57.1,65.6z"/>
		</g>
		<g>
			<path class="st2" d="M8.3,145.8c2.5-16.4,12.1-72.2,40.6-93l1.8,2.5c-32.4,23.7-37.9,95.3-38,95.5
				C11.3,150.7,7.7,149.6,8.3,145.8L8.3,145.8z"/>
		</g>
		<g>
			<path class="st2" d="M50.8,47.6c3.8,0.6,6.5,4.2,5.9,8s-4.2,6.5-8,5.9s-6.5-4.2-5.9-8C43.4,49.7,47,47,50.8,47.6L50.8,47.6z"/>
		</g>
		<g>
			<path class="st2" d="M95.6,43.7c1,0,1.8,0.8,1.8,1.8s-0.8,1.8-1.8,1.8s-1.8-0.8-1.8-1.8C93.9,44.5,94.6,43.7,95.6,43.7L95.6,43.7
				z"/>
		</g>
		<g>
			<path class="st3" d="M34.3,24.1c-0.7-0.7-1.7-1.2-2.8-1.4c-2.8-0.4-5.3,1.4-5.8,4.1c-0.1,0.9,0,1.8,0.3,2.6h0.1
				C30.1,29.4,33.4,27.1,34.3,24.1z"/>
		</g>
		<g>
			<path class="st3" d="M24.2,45.3c-0.7-0.7-1.7-1.2-2.8-1.4c-2.7-0.4-5.3,1.4-5.7,4c-0.1,0.9,0,1.8,0.3,2.5h0.1
				C20.1,50.4,23.3,48.2,24.2,45.3z"/>
		</g>
		<g>
			<path class="st3" d="M24.2,66c-0.7-0.7-1.7-1.2-2.8-1.4c-2.7-0.4-5.3,1.4-5.7,4c-0.1,0.9,0,1.8,0.3,2.5h0.1
				C20.1,71.2,23.3,69,24.2,66z"/>
		</g>
		<g>
			<path class="st3" d="M54.7,78.3c-0.7-0.7-1.7-1.2-2.8-1.4c-2.8-0.4-5.4,1.4-5.8,4.1c-0.1,0.9,0,1.8,0.3,2.6h0.1
				C50.5,83.6,53.8,81.4,54.7,78.3z"/>
		</g>
		<g>
			<path class="st3" d="M54.8,49.6c-1-1-2.4-1.7-3.9-2c-3.9-0.6-7.5,2-8,5.7c-0.2,1.3,0,2.5,0.5,3.6c0.1,0,0.1,0,0.2,0
				C48.9,56.9,53.5,53.8,54.8,49.6z"/>
		</g>
		<g>
			<path class="st3" d="M78.4,66.7c-1-1-2.4-1.7-3.9-2c-3.9-0.6-7.5,2-8,5.7c-0.2,1.3,0,2.5,0.5,3.6c0.1,0,0.1,0,0.2,0
				C72.5,74.1,77.1,71,78.4,66.7z"/>
		</g>
		<g>
			<path class="st3" d="M60.8,21.6c-0.7-0.7-1.6-1.2-2.7-1.3c-2.7-0.4-5.1,1.4-5.5,3.9c-0.1,0.9,0,1.7,0.3,2.5H53
				C56.8,26.7,59.9,24.6,60.8,21.6z"/>
		</g>
		<g>
			<path class="st3" d="M78.5,21.7c-0.7-0.7-1.6-1.2-2.6-1.3c-2.6-0.4-5,1.3-5.4,3.8c-0.1,0.9,0,1.7,0.3,2.4h0.1
				C74.6,26.6,77.6,24.5,78.5,21.7z"/>
		</g>
		<g>
			<path class="st3" d="M86.2,35.9c-0.7-0.7-1.7-1.2-2.8-1.4c-2.8-0.4-5.4,1.4-5.8,4.1c-0.1,0.9,0,1.8,0.3,2.6H78
				C82,41.2,85.3,38.9,86.2,35.9z"/>
		</g>
		<g>
			<path class="st3" d="M95.4,51.7c-0.8-0.7-1.7-1.3-2.9-1.4c-2.8-0.4-5.4,1.5-5.9,4.2c-0.1,0.9,0,1.8,0.3,2.6H87
				C91.1,57.1,94.5,54.8,95.4,51.7z"/>
		</g>
		<g>
			<path class="st4" d="M21,94.9c-7.8,20.6-11.3,41.8-12.7,50.9c-0.6,3.8,3,4.9,4.4,5c0-0.1,2.1-27.3,11.3-53.8
				C23,96.3,22,95.6,21,94.9z"/>
		</g>
	</g>
	<g>
		<path class="st1" d="M143.8,108.9h-4.9l2.5-15.7h4.7c5.3,0,8.2,2,8.2,6.6C154.4,105.7,150.6,108.9,143.8,108.9z M146.1,96h-2
			l-1.6,10.2h1.8c4.3,0,6.8-2.1,6.8-6.2C151.2,97.3,149.5,96,146.1,96z"/>
		<path class="st1" d="M166.9,109.2c-4,0-6.5-2.3-6.5-6.7c0-6.1,3.9-9.5,8.8-9.5c4,0,6.5,2.3,6.5,6.7
			C175.7,105.8,171.8,109.2,166.9,109.2z M168.9,95.7c-3,0-5.3,2.6-5.3,6.7c0,2.7,1.4,4,3.7,4c3,0,5.3-2.5,5.3-6.7
			C172.5,97,171.2,95.7,168.9,95.7z"/>
		<path class="st1" d="M194.5,96.7c-0.4-0.3-1.4-1.1-3.5-1.1c-3.2,0-6.1,2.1-6.1,6.6c0,3,1.5,4.1,4.1,4.1c2.1,0,3.3-0.7,3.9-1.1
			l0.7,2.5c-0.7,0.5-2.2,1.4-5.2,1.4c-3.9,0-6.7-2-6.7-6.8c0-6.3,4.7-9.4,9.2-9.4c2.8,0,4.1,0.9,4.5,1.2L194.5,96.7z"/>
		<path class="st1" d="M213.9,101.9c-0.8,4.8-3.2,7.3-7.7,7.3c-3.8,0-5.7-1.6-5.7-5.2c0-0.8,0.1-1.6,0.3-2.8l1.3-8h3.2l-1.3,8
			c-0.2,1-0.3,1.8-0.3,2.4c0,2,1,2.8,2.9,2.8c2.5,0,3.8-1.4,4.3-4.5l1.4-8.6h3L213.9,101.9z"/>
		<path class="st1" d="M236.9,108.9h-3l1.5-9.8h0l-5.6,9.8h-2.4l-2.5-9.8h0l-1.6,9.8h-3l2.5-15.7h3.5l3,11.6h0l6.7-11.6h3.6
			L236.9,108.9z"/>
		<path class="st1" d="M256.7,95.9h-7.1l-0.6,3.7h6.4l-0.4,2.5h-6.4l-0.6,4h7.3l-0.5,2.8h-10.4l2.5-15.7h10.3L256.7,95.9z"/>
		<path class="st1" d="M274.7,108.9h-2.8l-5.5-10.2h0l-1.6,10.2h-3.1l2.5-15.7h2.8l5.5,10.2h0l1.6-10.2h3.1L274.7,108.9z"/>
		<path class="st1" d="M296.7,95.9h-5.3l-2.1,13h-3.1l2-13h-5.3l0.4-2.7h13.8L296.7,95.9z"/>
		<path class="st1" d="M313,108.9h-3.3l-0.8-4.3h-5.4l-2.1,4.3h-3.3l8.3-15.7h3.2L313,108.9z M307.5,96.5L307.5,96.5l-3,6.1h4
			L307.5,96.5z"/>
		<path class="st1" d="M332.1,95.9h-5.3l-2.1,13h-3.1l2-13h-5.3l0.4-2.7h13.8L332.1,95.9z"/>
		<path class="st1" d="M339.5,108.9h-3.1l2.5-15.7h3.1L339.5,108.9z"/>
		<path class="st1" d="M354.1,109.2c-4,0-6.5-2.3-6.5-6.7c0-6.1,3.9-9.5,8.8-9.5c4,0,6.5,2.3,6.5,6.7
			C362.9,105.8,359,109.2,354.1,109.2z M356.1,95.7c-3,0-5.3,2.6-5.3,6.7c0,2.7,1.4,4,3.7,4c3,0,5.3-2.5,5.3-6.7
			C359.7,97,358.4,95.7,356.1,95.7z"/>
		<path class="st1" d="M381.5,108.9h-2.8l-5.5-10.2h0l-1.6,10.2h-3.1l2.5-15.7h2.8l5.5,10.2h0l1.6-10.2h3.1L381.5,108.9z"/>
	</g>
</g>
</svg>
